<svg xmlns="http://www.w3.org/2000/svg" width="162" height="90" viewBox="0 0 162 90">
  <path id="bicycle" d="M-202.422,319H-224.5a4.2,4.2,0,0,1-4.043-2.461,4.2,4.2,0,0,1,.457-4.711l13.219-17.648A22.105,22.105,0,0,0-224.5,292a21.666,21.666,0,0,0-15.891,6.609A21.666,21.666,0,0,0-247,314.5a21.666,21.666,0,0,0,6.609,15.891A21.666,21.666,0,0,0-224.5,337a21.8,21.8,0,0,0,14.273-5.1A22.068,22.068,0,0,0-202.422,319Zm-13.078-9h13.078a22.028,22.028,0,0,0-5.273-10.406Zm33.75,0,20.25-27h-33.75l-6.961,9.281A30,30,0,0,1-193.352,310Zm78.75,4.5a21.666,21.666,0,0,0-6.609-15.891A21.666,21.666,0,0,0-125.5,292a23.107,23.107,0,0,0-8.508,1.688l12.234,18.281a4.531,4.531,0,0,1,.7,3.445,4.119,4.119,0,0,1-1.9,2.813A4.162,4.162,0,0,1-125.5,319a4.114,4.114,0,0,1-3.727-2.039l-12.234-18.281A21.854,21.854,0,0,0-148,314.5a21.666,21.666,0,0,0,6.609,15.891A21.666,21.666,0,0,0-125.5,337a21.666,21.666,0,0,0,15.891-6.609A21.666,21.666,0,0,0-103,314.5Zm9,0a30.337,30.337,0,0,1-9.246,22.254A30.337,30.337,0,0,1-125.5,346a30.337,30.337,0,0,1-22.254-9.246A30.337,30.337,0,0,1-157,314.5a30.7,30.7,0,0,1,2.777-12.9,31.7,31.7,0,0,1,7.7-10.512l-4.57-6.891-24.82,32.977A4.106,4.106,0,0,1-179.5,319h-13.852a30.432,30.432,0,0,1-10.477,19.266A30.456,30.456,0,0,1-224.5,346a30.337,30.337,0,0,1-22.254-9.246A30.337,30.337,0,0,1-256,314.5a30.337,30.337,0,0,1,9.246-22.254A30.337,30.337,0,0,1-224.5,283a31.138,31.138,0,0,1,15.117,3.867L-199.75,274H-215.5a4.325,4.325,0,0,1-3.164-1.336A4.325,4.325,0,0,1-220,269.5a4.325,4.325,0,0,1,1.336-3.164A4.325,4.325,0,0,1-215.5,265h27v9h30.586l-5.977-9H-179.5a4.325,4.325,0,0,1-3.164-1.336A4.325,4.325,0,0,1-184,260.5a4.325,4.325,0,0,1,1.336-3.164A4.325,4.325,0,0,1-179.5,256h18a4.368,4.368,0,0,1,3.727,1.969L-139,286.094A30.627,30.627,0,0,1-125.5,283a30.337,30.337,0,0,1,22.254,9.246A30.337,30.337,0,0,1-94,314.5Z" transform="translate(256 -256)" fill="#fff"/>
</svg>
