<svg xmlns="http://www.w3.org/2000/svg" width="113.359" height="90.211" viewBox="0 0 113.359 90.211">
  <path id="home" d="M187.069,304.961v33.75a4.563,4.563,0,0,1-4.5,4.5h-27v-27h-18v27h-27a4.563,4.563,0,0,1-4.5-4.5v-33.75a.961.961,0,0,1,.035-.211.961.961,0,0,0,.035-.211l40.43-33.328L187,304.539A.979.979,0,0,1,187.069,304.961Zm15.68-4.852-4.359,5.2a2.392,2.392,0,0,1-1.477.773H196.7a2.161,2.161,0,0,1-1.477-.492l-48.656-40.57-48.656,40.57a2.613,2.613,0,0,1-1.687.492,2.392,2.392,0,0,1-1.477-.773l-4.359-5.2a2.28,2.28,0,0,1-.492-1.652,2.041,2.041,0,0,1,.773-1.512l50.555-42.117a8.724,8.724,0,0,1,10.688,0l17.156,14.344V255.461a2.166,2.166,0,0,1,2.25-2.25h13.5a2.166,2.166,0,0,1,2.25,2.25v28.688l15.4,12.8a2.042,2.042,0,0,1,.773,1.512A2.281,2.281,0,0,1,202.748,300.109Z" transform="translate(-89.889 -253)" fill="#fff"/>
</svg>
