<svg xmlns="http://www.w3.org/2000/svg" width="117" height="99" viewBox="0 0 117 99">
  <path id="shopping-cart" d="M109,346a9.125,9.125,0,1,1-2.672-6.328A8.649,8.649,0,0,1,109,346Zm63,0a9.125,9.125,0,1,1-2.672-6.328A8.649,8.649,0,0,1,172,346Zm9-76.5v36a4.359,4.359,0,0,1-1.16,2.988A4.447,4.447,0,0,1,176.992,310l-73.406,8.578a42.451,42.451,0,0,1,.914,4.922q0,1.125-1.687,4.5H167.5a4.5,4.5,0,0,1,0,9h-72a4.563,4.563,0,0,1-4.5-4.5,6.705,6.705,0,0,1,.562-2.215,26.8,26.8,0,0,1,1.125-2.531q.563-1.09,1.512-2.812t1.09-2.074L82.844,265H68.5a4.5,4.5,0,0,1,0-9h18a4.28,4.28,0,0,1,2,.457,4.09,4.09,0,0,1,1.371,1.09,6.854,6.854,0,0,1,.914,1.723,10.946,10.946,0,0,1,.563,1.828q.141.738.387,2.074T92.055,265H176.5a4.563,4.563,0,0,1,4.5,4.5Z" transform="translate(-64 -256)" fill="#fff"/>
</svg>
